<svg xmlns="http://www.w3.org/2000/svg" width="2404" height="2029" viewBox="0 0 2404 2029" version="1.1"><path d="M 586.835 1292.468 L 578.599 1317.983 524.760 1318.241 L 470.921 1318.500 514.210 1349.916 C 538.020 1367.195, 557.587 1381.381, 557.692 1381.442 C 557.798 1381.502, 550.492 1404.265, 541.457 1432.026 C 532.422 1459.787, 525.136 1482.834, 525.265 1483.241 C 525.394 1483.649, 544.993 1469.834, 568.818 1452.541 L 612.136 1421.100 622.318 1428.503 C 686.339 1475.049, 698.540 1483.755, 698.787 1483.072 C 698.945 1482.635, 691.857 1460.056, 683.037 1432.896 C 674.217 1405.735, 667 1382.983, 667 1382.335 C 667 1381.687, 686.435 1367.059, 710.189 1349.828 L 753.379 1318.500 699.469 1318 L 645.559 1317.500 637.431 1292.500 L 629.304 1267.500 612.188 1267.227 L 595.072 1266.953 586.835 1292.468 M 1005.115 1283.750 C 999.455 1360.924, 988.956 1449.725, 977.478 1517.500 C 959.924 1621.158, 935.147 1706.602, 911.676 1744.421 L 909.243 1748.342 930.371 1758.946 C 984.397 1786.061, 1031.147 1820.484, 1074.107 1864.785 C 1102.752 1894.325, 1129.942 1929.295, 1147.943 1959.750 C 1150.300 1963.737, 1152.402 1967, 1152.614 1967 C 1152.826 1967, 1153 1895.012, 1153 1807.026 L 1153 1647.051 1150.066 1645.534 C 1145.900 1643.380, 1135.399 1633.440, 1131.870 1628.311 C 1123.642 1616.353, 1120.030 1604.816, 1120.030 1590.500 C 1120.030 1579.011, 1122.011 1570.707, 1127.074 1560.975 C 1136.867 1542.151, 1155.188 1529.107, 1176 1526.140 C 1190.841 1524.025, 1206.513 1525.335, 1218 1529.652 C 1235.803 1536.343, 1250.718 1551.737, 1257.093 1570 C 1260.192 1578.877, 1260.903 1596.712, 1258.529 1606 C 1254.749 1620.782, 1243.842 1636.423, 1231.931 1644.141 L 1227 1647.337 1227 1807.168 C 1227 1895.076, 1227.170 1967, 1227.377 1967 C 1227.584 1967, 1230.249 1962.838, 1233.299 1957.750 C 1262.318 1909.345, 1308.078 1857.593, 1355.500 1819.549 C 1388.208 1793.309, 1416.998 1774.911, 1453.163 1757.137 L 1470.826 1748.456 1468.359 1744.478 C 1448.206 1711.979, 1425.393 1638.505, 1409.062 1553.500 C 1394.776 1479.138, 1382.020 1378.205, 1374.907 1283.250 L 1373.690 1267 1190.017 1267 L 1006.344 1267 1005.115 1283.750 M 1724.117 1292.500 L 1715.872 1318 1662.377 1318 C 1629.831 1318, 1609.106 1318.363, 1609.454 1318.926 C 1609.769 1319.435, 1628.808 1333.450, 1651.763 1350.071 C 1674.718 1366.691, 1693.868 1380.615, 1694.317 1381.012 C 1694.767 1381.409, 1687.694 1404.609, 1678.601 1432.567 C 1669.507 1460.526, 1662.219 1483.552, 1662.404 1483.737 C 1662.589 1483.922, 1682.231 1469.904, 1706.055 1452.587 L 1749.369 1421.101 1753.935 1424.419 C 1813.516 1467.719, 1836.251 1484.077, 1836.489 1483.818 C 1836.650 1483.643, 1829.400 1460.792, 1820.378 1433.038 C 1811.356 1405.283, 1804.093 1382.239, 1804.237 1381.827 C 1804.382 1381.416, 1823.850 1366.999, 1847.500 1349.790 L 1890.500 1318.500 1836.776 1318.241 L 1783.051 1317.983 1774.776 1292.500 L 1766.500 1267.017 1749.431 1267.009 L 1732.361 1267 1724.117 1292.500" stroke="none" fill="#58be54" fill-rule="evenodd"/><path d="M 885.453 245.358 C 718.227 309.786, 580.312 362.991, 578.974 363.592 C 576.860 364.541, 595.122 370.876, 718.771 412.089 L 861 459.495 861.024 514.497 C 861.039 547.140, 861.451 571.245, 862.039 573.791 C 864.477 584.363, 872.651 595.353, 881.661 600.175 C 884.322 601.599, 952.425 631.055, 1033 665.632 L 1179.500 728.500 1190 728.500 L 1200.500 728.500 1347 665.626 C 1427.575 631.045, 1495.251 601.866, 1497.392 600.783 C 1502.564 598.167, 1510.353 590.781, 1513.358 585.644 C 1518.939 576.102, 1519 575.336, 1519 515.066 L 1519 459.495 1661.144 412.117 C 1750.898 382.202, 1802.766 364.449, 1801.874 363.949 C 1800.577 363.223, 1192.776 129.152, 1190.500 128.502 C 1189.950 128.345, 1052.679 180.930, 885.453 245.358 M 1051.500 440.170 C 1033.137 443.647, 1016.944 459.409, 1012.540 478.093 C 1006.218 504.911, 1023.136 532.106, 1050.093 538.460 C 1078.520 545.161, 1106.733 525.939, 1111.162 496.852 C 1116.349 462.793, 1085.717 433.692, 1051.500 440.170 M 1309.500 440.022 C 1290.854 443.765, 1276.536 456.570, 1270.392 475 C 1267.704 483.062, 1267.893 496.554, 1270.813 505.109 C 1276.583 522.010, 1290.127 534.461, 1307.093 538.460 C 1341.326 546.530, 1373.316 517.192, 1368.294 482.333 C 1364.287 454.519, 1336.587 434.585, 1309.500 440.022 M 79 466.301 C 79 466.940, 268.916 818.228, 274.274 827.500 C 280.748 838.704, 295.161 859.608, 304.455 871.277 C 332.962 907.063, 373.302 940.323, 411 959.121 C 441.529 974.343, 559.336 1005.204, 694.695 1033.437 C 819.506 1059.470, 912.361 1090.900, 970.248 1126.707 C 998.717 1144.317, 1012.566 1170.511, 1010.586 1203 C 1008.424 1238.476, 1006.936 1260.918, 1006.559 1263.750 L 1006.126 1267 1190.108 1267 L 1374.091 1267 1373.556 1263.750 C 1373.262 1261.963, 1372.088 1245.344, 1370.948 1226.821 C 1368.657 1189.617, 1368.910 1184.126, 1373.558 1170.175 C 1379.657 1151.872, 1392.932 1136.566, 1413 1124.700 C 1474.366 1088.415, 1564.333 1058.528, 1692 1032.016 C 1820.952 1005.237, 1938.386 974.265, 1969.983 958.702 C 2012.360 937.829, 2058.891 896.550, 2089.698 852.500 C 2093.544 847, 2099.419 838, 2102.753 832.500 C 2109.459 821.436, 2301.269 466.930, 2300.796 466.472 C 2300.633 466.315, 2295.550 470.456, 2289.500 475.675 C 2256.005 504.570, 2202.811 540.422, 2148 571.045 C 2008.595 648.929, 1818.656 716.197, 1628.500 755.030 C 1454.334 790.597, 1293.425 844.745, 1205.223 897.466 C 1197.371 902.160, 1190.565 906, 1190.098 906 C 1189.632 906, 1182.781 902.165, 1174.875 897.478 C 1084.230 843.742, 927.743 791.209, 749 754.513 C 717.998 748.148, 699.337 743.854, 661.603 734.403 C 463.379 684.753, 287.296 611.903, 158.487 526.249 C 135.358 510.870, 108.739 491.215, 94.832 479.249 C 81.790 468.028, 79 465.746, 79 466.301 M 611.432 1217.500 C 610.967 1218.600, 607.138 1230.075, 602.922 1243 L 595.256 1266.500 611.770 1266.775 C 620.853 1266.926, 628.424 1266.909, 628.597 1266.737 C 628.769 1266.565, 625.167 1254.966, 620.592 1240.962 C 614.248 1221.539, 612.075 1215.974, 611.432 1217.500 M 1748.510 1217.250 C 1745.263 1226.745, 1733 1265.317, 1733 1266.035 C 1733 1266.616, 1739.564 1267, 1749.500 1267 C 1758.575 1267, 1766 1266.727, 1766 1266.393 C 1766 1265.048, 1749.857 1216, 1749.414 1216 C 1749.152 1216, 1748.745 1216.563, 1748.510 1217.250" stroke="none" fill="#8ecc5b" fill-rule="evenodd"/></svg>